<svg id="visual" viewBox="0 0 960 300" width="960" height="300" xmlns="http://www.w3.org/2000/svg" xmlns:xlink="http://www.w3.org/1999/xlink" version="1.1"><rect x="0" y="0" width="960" height="300" fill="#000000"></rect><defs><linearGradient id="grad1_0" x1="68.8%" y1="100%" x2="100%" y2="0%"><stop offset="-14.000000000000007%" stop-color="#715df2" stop-opacity="1"></stop><stop offset="114.00000000000001%" stop-color="#715df2" stop-opacity="1"></stop></linearGradient></defs><defs><linearGradient id="grad1_1" x1="68.8%" y1="100%" x2="100%" y2="0%"><stop offset="-14.000000000000007%" stop-color="#715df2" stop-opacity="1"></stop><stop offset="114.00000000000001%" stop-color="#3b36c3" stop-opacity="1"></stop></linearGradient></defs><defs><linearGradient id="grad1_2" x1="68.8%" y1="100%" x2="100%" y2="0%"><stop offset="-14.000000000000007%" stop-color="#001095" stop-opacity="1"></stop><stop offset="114.00000000000001%" stop-color="#3b36c3" stop-opacity="1"></stop></linearGradient></defs><defs><linearGradient id="grad1_3" x1="68.8%" y1="100%" x2="100%" y2="0%"><stop offset="-14.000000000000007%" stop-color="#001095" stop-opacity="1"></stop><stop offset="114.00000000000001%" stop-color="#000000" stop-opacity="1"></stop></linearGradient></defs><defs><linearGradient id="grad2_0" x1="0%" y1="100%" x2="31.3%" y2="0%"><stop offset="-14.000000000000007%" stop-color="#715df2" stop-opacity="1"></stop><stop offset="114.00000000000001%" stop-color="#715df2" stop-opacity="1"></stop></linearGradient></defs><defs><linearGradient id="grad2_1" x1="0%" y1="100%" x2="31.3%" y2="0%"><stop offset="-14.000000000000007%" stop-color="#3b36c3" stop-opacity="1"></stop><stop offset="114.00000000000001%" stop-color="#715df2" stop-opacity="1"></stop></linearGradient></defs><defs><linearGradient id="grad2_2" x1="0%" y1="100%" x2="31.3%" y2="0%"><stop offset="-14.000000000000007%" stop-color="#3b36c3" stop-opacity="1"></stop><stop offset="114.00000000000001%" stop-color="#001095" stop-opacity="1"></stop></linearGradient></defs><defs><linearGradient id="grad2_3" x1="0%" y1="100%" x2="31.3%" y2="0%"><stop offset="-14.000000000000007%" stop-color="#000000" stop-opacity="1"></stop><stop offset="114.00000000000001%" stop-color="#001095" stop-opacity="1"></stop></linearGradient></defs><g transform="translate(960, 300)"><path d="M-270 0C-264 -49.1 -258.1 -98.3 -233.8 -135C-209.6 -171.7 -167 -196.1 -125 -216.5C-83 -236.9 -41.5 -253.5 0 -270L0 0Z" fill="#00007f"></path><path d="M-202.5 0C-198 -36.8 -193.6 -73.7 -175.4 -101.3C-157.2 -128.8 -125.3 -147.1 -93.8 -162.4C-62.2 -177.7 -31.1 -190.1 0 -202.5L0 0Z" fill="#1223ac"></path><path d="M-135 0C-132 -24.6 -129 -49.1 -116.9 -67.5C-104.8 -85.9 -83.5 -98 -62.5 -108.3C-41.5 -118.5 -20.7 -126.7 0 -135L0 0Z" fill="#5749da"></path><path d="M-67.5 0C-66 -12.3 -64.5 -24.6 -58.5 -33.8C-52.4 -42.9 -41.8 -49 -31.3 -54.1C-20.7 -59.2 -10.4 -63.4 0 -67.5L0 0Z" fill="#715df2"></path></g><g transform="translate(0, 0)"><path d="M270 0C264.5 49.9 259 99.9 233.8 135C208.6 170.1 163.8 190.4 121.5 210.4C79.2 230.5 39.6 250.2 0 270L0 0Z" fill="#00007f"></path><path d="M202.5 0C198.4 37.5 194.3 74.9 175.4 101.2C156.5 127.6 122.8 142.8 91.1 157.8C59.4 172.9 29.7 187.7 0 202.5L0 0Z" fill="#1223ac"></path><path d="M135 0C132.3 25 129.5 49.9 116.9 67.5C104.3 85.1 81.9 95.2 60.8 105.2C39.6 115.2 19.8 125.1 0 135L0 0Z" fill="#5749da"></path><path d="M67.5 0C66.1 12.5 64.8 25 58.5 33.7C52.2 42.5 40.9 47.6 30.4 52.6C19.8 57.6 9.9 62.6 0 67.5L0 0Z" fill="#715df2"></path></g></svg>