<svg id="visual" viewBox="0 0 900 300" width="900" height="300" xmlns="http://www.w3.org/2000/svg" xmlns:xlink="http://www.w3.org/1999/xlink" version="1.1"><rect x="0" y="0" width="900" height="300" fill="#001220"></rect><path d="M0 96L21.5 92.7C43 89.3 86 82.7 128.8 84.7C171.7 86.7 214.3 97.3 257.2 97C300 96.7 343 85.3 385.8 85.5C428.7 85.7 471.3 97.3 514.2 104.2C557 111 600 113 642.8 113.8C685.7 114.7 728.3 114.3 771.2 109.2C814 104 857 94 878.5 89L900 84L900 0L878.5 0C857 0 814 0 771.2 0C728.3 0 685.7 0 642.8 0C600 0 557 0 514.2 0C471.3 0 428.7 0 385.8 0C343 0 300 0 257.2 0C214.3 0 171.7 0 128.8 0C86 0 43 0 21.5 0L0 0Z" fill="#fa7268"></path><path d="M0 73L21.5 77.3C43 81.7 86 90.3 128.8 88C171.7 85.7 214.3 72.3 257.2 68.8C300 65.3 343 71.7 385.8 72C428.7 72.3 471.3 66.7 514.2 69.8C557 73 600 85 642.8 85.7C685.7 86.3 728.3 75.7 771.2 69.3C814 63 857 61 878.5 60L900 59L900 0L878.5 0C857 0 814 0 771.2 0C728.3 0 685.7 0 642.8 0C600 0 557 0 514.2 0C471.3 0 428.7 0 385.8 0C343 0 300 0 257.2 0C214.3 0 171.7 0 128.8 0C86 0 43 0 21.5 0L0 0Z" fill="#ef5f67"></path><path d="M0 50L21.5 52.2C43 54.3 86 58.7 128.8 60.3C171.7 62 214.3 61 257.2 61.8C300 62.7 343 65.3 385.8 64.5C428.7 63.7 471.3 59.3 514.2 59.2C557 59 600 63 642.8 67C685.7 71 728.3 75 771.2 74.7C814 74.3 857 69.7 878.5 67.3L900 65L900 0L878.5 0C857 0 814 0 771.2 0C728.3 0 685.7 0 642.8 0C600 0 557 0 514.2 0C471.3 0 428.7 0 385.8 0C343 0 300 0 257.2 0C214.3 0 171.7 0 128.8 0C86 0 43 0 21.5 0L0 0Z" fill="#e34c67"></path><path d="M0 49L21.5 48C43 47 86 45 128.8 45C171.7 45 214.3 47 257.2 45.2C300 43.3 343 37.7 385.8 37.7C428.7 37.7 471.3 43.3 514.2 45C557 46.7 600 44.3 642.8 45.3C685.7 46.3 728.3 50.7 771.2 49C814 47.3 857 39.7 878.5 35.8L900 32L900 0L878.5 0C857 0 814 0 771.2 0C728.3 0 685.7 0 642.8 0C600 0 557 0 514.2 0C471.3 0 428.7 0 385.8 0C343 0 300 0 257.2 0C214.3 0 171.7 0 128.8 0C86 0 43 0 21.5 0L0 0Z" fill="#d53867"></path><path d="M0 30L21.5 30.7C43 31.3 86 32.7 128.8 33.3C171.7 34 214.3 34 257.2 31.7C300 29.3 343 24.7 385.8 22.5C428.7 20.3 471.3 20.7 514.2 19.7C557 18.7 600 16.3 642.8 15C685.7 13.7 728.3 13.3 771.2 13.2C814 13 857 13 878.5 13L900 13L900 0L878.5 0C857 0 814 0 771.2 0C728.3 0 685.7 0 642.8 0C600 0 557 0 514.2 0C471.3 0 428.7 0 385.8 0C343 0 300 0 257.2 0C214.3 0 171.7 0 128.8 0C86 0 43 0 21.5 0L0 0Z" fill="#c62368"></path></svg>